#!OML:ASF H:\BabyWalks\Project 1\Capture day 1\Session 1\baby.ASF
:FULLY-SPECIFIED
:DEGREES
490
root 23.7238 17.4082 0.640604 -153.394 78.2287 -160.328
lowerback 29.4503 1.78566 -0.624429
upperback 8.30911 2.93685 -0.563989
thorax -6.83922 1.77398 -1.31327
lowerneck 1.52369 -0.803643 3.82339
upperneck -14.3921 -0.748684 -1.47318
head -4.58287 -0.350816 -1.06301
rclavicle -1.76918e-014 -4.77083e-015
rhumerus -40.6242 20.4923 -71.9472
rradius 53.7407
rwrist 2.88494
rhand -13.0067 -14.5246
rfingers 7.12502
rthumb 13.0868 -44.094
lclavicle -1.76918e-014 -4.77083e-015
lhumerus -37.3312 -9.81089 71.3792
lradius 64.6549
lwrist 1.54961
lhand -13.5077 1.39102
lfingers 7.12502
lthumb 12.6038 30.9908
rfemur -37.9117 -0.245193 17.8945
rtibia 50.8579
rfoot -17.7511 12.2658
rtoes -17.5244
lfemur -27.5215 -10.5764 -7.73876
ltibia 39.4318
lfoot -25.2969 -15.8148
ltoes -2.92318
491
root 23.908 17.4367 0.641294 -153.151 78.6117 -160.007
lowerback 29.2535 1.82028 -0.485287
upperback 8.19462 3.01354 -0.393414
thorax -6.878 1.79932 -1.22444
lowerneck 1.39241 -0.930102 3.90277
upperneck -13.7663 -0.932887 -1.53802
head -4.87135 -0.45278 -1.18953
rclavicle -3.00165e-014 2.5842e-014
rhumerus -40.8011 20.3637 -71.0634
rradius 53.6107
rwrist 1.33177
rhand -11.8443 -15.1407
rfingers 7.12502
rthumb 14.207 -44.6348
lclavicle -3.00165e-014 2.5842e-014
lhumerus -37.8537 -9.91617 71.9793
lradius 65.0269
lwrist 1.93885
lhand -13.2421 1.45623
lfingers 7.12502
lthumb 12.8598 31.0401
rfemur -37.7042 0.0836796 17.7192
rtibia 48.3848
rfoot -17.8446 12.0409
rtoes -17.5149
lfemur -26.297 -10.5898 -7.88555
ltibia 38.9255
lfoot -25.7283 -15.3109
ltoes -3.00062
492
root 24.0942 17.4591 0.640036 -152.975 79.0039 -159.745
lowerback 29.0321 1.84341 -0.309556
upperback 8.07112 3.08485 -0.222848
thorax -6.91324 1.82164 -1.15396
lowerneck 1.21195 -1.06159 3.96789
upperneck -13.474 -1.14685 -1.71588
head -4.73649 -0.556198 -1.24978
rclavicle 3.06128e-014 -4.96962e-015
rhumerus -40.9587 20.2218 -70.1601
rradius 53.5051
rwrist -0.193991
rhand -10.7458 -15.7556
rfingers 7.12502
rthumb 15.2654 -45.1723
lclavicle 3.06128e-014 -4.96962e-015
lhumerus -38.439 -10.0137 72.5971
lradius 65.2325
lwrist 2.19474
lhand -12.9928 1.51478
lfingers 7.12502
lthumb 13.1002 31.0833
rfemur -37.4275 0.424542 17.5342
rtibia 45.9484
rfoot -17.9374 11.7143
rtoes -17.4674
lfemur -25.1009 -10.5604 -8.07617
ltibia 38.5074
lfoot -26.1559 -14.8514
ltoes -3.04638
493
root 24.2832 17.4597 0.636854 -152.925 79.3936 -159.59
lowerback 28.8004 1.85019 -0.101775
upperback 7.9415 3.14395 -0.0508578
thorax -6.94856 1.83794 -1.0959
lowerneck 0.981343 -1.19849 4.02371
upperneck -13.1274 -1.37484 -1.93391
head -4.57415 -0.664795 -1.32136
rclavicle 2.69353e-014 -1.98785e-016
rhumerus -41.0935 20.08 -69.2409
rradius 53.4238
rwrist -1.64082
rhand -9.76439 -16.3236
rfingers 7.12502
rthumb 16.2105 -45.6658
lclavicle 2.69353e-014 -1.98785e-016
lhumerus -39.0841 -10.0907 73.2254
lradius 65.2916
lwrist 2.29998
lhand -12.7557 1.57143
lfingers 7.12502
lthumb 13.3287 31.1252
rfemur -37.1272 0.777016 17.3244
rtibia 43.6453
rfoot -18.0225 11.2514
rtoes -17.3868
lfemur -23.9686 -10.4793 -8.30491
ltibia 38.2323
lfoot -26.5883 -14.471
ltoes -3.01013
494
root 24.4728 17.4683 0.632654 -153.086 79.7726 -159.625
lowerback 28.5709 1.83978 0.130249
upperback 7.8071 3.18787 0.121286
thorax -6.98853 1.84698 -1.04677
lowerneck 0.697266 -1.34156 4.0793
upperneck -12.7273 -1.61716 -2.19961
head -4.3852 -0.77916 -1.40856
rclavicle 3.79679e-014 -5.46658e-015
rhumerus -41.2148 19.94 -68.3103
rradius 53.3721
rwrist -2.95388
rhand -8.91862 -16.8147
rfingers 7.12502
rthumb 17.0248 -46.0886
lclavicle 3.79679e-014 -5.46658e-015
lhumerus -39.775 -10.1393 73.8562
lradius 65.2111
lwrist 2.2443
lhand -12.5128 1.61938
lfingers 7.12502
lthumb 13.5628 31.1576
rfemur -36.7219 1.14327 17.09
rtibia 41.4572
rfoot -18.1003 10.6323
rtoes -17.2186
lfemur -22.8472 -10.3446 -8.58815
ltibia 38.0453
lfoot -27.0082 -14.1949
ltoes -2.86618
495
root 24.6637 17.4685 0.627813 -153.543 80.1323 -159.921
lowerback 28.3564 1.81209 0.374871
upperback 7.67354 3.2142 0.293469
thorax -7.0336 1.84805 -0.999679
lowerneck 0.363847 -1.49213 4.14147
upperneck -12.2794 -1.87426 -2.51705
head -4.17386 -0.900056 -1.51412
rclavicle -4.27387e-015 4.21175e-014
rhumerus -41.3251 19.8124 -67.3778
rradius 53.3496
rwrist -4.0956
rhand -8.21808 -17.2135
rfingers 7.12502
rthumb 17.699 -46.4279
lclavicle -4.27387e-015 4.21175e-014
lhumerus -40.5002 -10.1501 74.4783
lradius 65.0142
lwrist 2.04802
lhand -12.2456 1.6645
lfingers 7.12502
lthumb 13.8203 31.1854
rfemur -36.258 1.5219 16.8167
rtibia 39.4786
rfoot -18.1525 9.86407
rtoes -16.9457
lfemur -21.7684 -10.142 -8.92035
ltibia 38.0008
lfoot -27.425 -14.0557
ltoes -2.61734
496
root 24.8558 17.4609 0.623246 -154.4 80.4688 -160.581
lowerback 28.1635 1.77307 0.613979
upperback 7.54286 3.22584 0.464015
thorax -7.08561 1.84274 -0.947369
lowerneck -0.00647404 -1.65319 4.23591
upperneck -11.7925 -2.14952 -2.90664
head -3.94802 -1.02991 -1.6497
rclavicle 1.88348e-014 1.54058e-015
rhumerus -41.4358 19.7052 -66.4514
rradius 53.3587
rwrist -5.04156
rhand -7.68043 -17.4991
rfingers 7.12502
rthumb 18.2163 -46.6661
lclavicle 1.88348e-014 1.54058e-015
lhumerus -41.2486 -10.1209 75.0828
lradius 64.7186
lwrist 1.75353
lhand -11.9407 1.7026
lfingers 7.12502
lthumb 14.1141 31.2032
rfemur -35.7151 1.91028 16.4949
rtibia 37.6865
rfoot -18.1217 8.98471
rtoes -16.5077
lfemur -20.7145 -9.86233 -9.30419
ltibia 38.0537
lfoot -27.7966 -14.0828
ltoes -2.28991
497
root 25.0485 17.4461 0.619857 -155.709 80.7732 -161.654
lowerback 27.9911 1.72436 0.83245
upperback 7.41733 3.22126 0.635223
thorax -7.14253 1.83054 -0.878039
lowerneck -0.387953 -1.82473 4.39389
upperneck -11.2936 -2.44274 -3.39878
head -3.72487 -1.16896 -1.83172
rclavicle 5.76476e-015 2.01766e-014
rhumerus -41.5453 19.6259 -65.5374
rradius 53.3985
rwrist -5.7824
rhand -7.23586 -17.716
rfingers 7.12502
rthumb 18.644 -46.8425
lclavicle 5.76476e-015 2.01766e-014
lhumerus -42.0131 -10.0342 75.6602
lradius 64.3462
lwrist 1.41443
lhand -11.5896 1.74123
lfingers 7.12502
lthumb 14.4524 31.218
rfemur -35.1214 2.30215 16.1301
rtibia 36.1593
rfoot -18.0196 8.06722
rtoes -15.8847
lfemur -19.7319 -9.4968 -9.72788
ltibia 38.2936
lfoot -28.1525 -14.2944
ltoes -1.91105
498
root 25.2413 17.4241 0.618604 -157.548 81.0384 -163.223
lowerback 27.8407 1.6693 1.00871
upperback 7.2986 3.19917 0.80717
thorax -7.20453 1.81112 -0.778859
lowerneck -0.764905 -2.00502 4.63978
upperneck -10.7988 -2.75186 -4.01841
head -3.51534 -1.31649 -2.07388
rclavicle 3.49861e-014 1.78906e-015
rhumerus -41.6512 19.5817 -64.6413
rradius 53.4635
rwrist -6.33217
rhand -6.90258 -17.8589
rfingers 7.12502
rthumb 18.9645 -46.9544
lclavicle 3.49861e-014 1.78906e-015
lhumerus -42.7891 -9.88973 76.2036
lradius 63.9206
lwrist 1.09563
lhand -11.2016 1.78283
lfingers 7.12502
lthumb 14.8263 31.2324
rfemur -34.4806 2.69528 15.7207
rtibia 34.9012
rfoot -17.8115 7.20586
rtoes -15.1467
lfemur -18.8398 -9.04327 -10.1857
ltibia 38.7439
lfoot -28.4746 -14.7033
ltoes -1.53872
499
root 25.4341 17.3949 0.620265 -159.899 81.2504 -165.27
lowerback 27.706 1.60915 1.13694
upperback 7.18993 3.16026 0.984945
thorax -7.26555 1.78512 -0.640754
lowerneck -1.13562 -2.1898 4.96063
upperneck -10.3128 -3.06985 -4.75572
head -3.32167 -1.46907 -2.37205
rclavicle -1.35174e-014 -4.37326e-014
rhumerus -41.7476 19.5773 -63.762
rradius 53.5517
rwrist -6.7147
rhand -6.65602 -17.9602
rfingers 7.12502
rthumb 19.2016 -47.0322
lclavicle -1.35174e-014 -4.37326e-014
lhumerus -43.5694 -9.68137 76.7092
lradius 63.4615
lwrist 0.845514
lhand -10.7851 1.83457
lfingers 7.12502
lthumb 15.2275 31.2542
rfemur -33.7993 3.08447 15.2834
rtibia 33.9169
rfoot -17.4282 6.50528
rtoes -14.568
lfemur -18.0613 -8.50683 -10.6535
ltibia 39.4302
lfoot -28.7279 -15.3242
ltoes -1.20811
500
root 25.6259 17.3589 0.625765 -162.707 81.3991 -167.743
lowerback 27.5935 1.54627 1.21274
upperback 7.08887 3.1065 1.1686
thorax -7.33169 1.75345 -0.462111
lowerneck -1.47236 -2.3802 5.36857
upperneck -9.8603 -3.39711 -5.61181
head -3.15872 -1.62714 -2.73096
rclavicle 3.97569e-016 2.8625e-014
rhumerus -41.833 19.5899 -62.9078
rradius 53.6545
rwrist -6.94817
rhand -6.54765 -18.0075
rfingers 7.12502
rthumb 19.3058 -47.0692
lclavicle 3.97569e-016 2.8625e-014
lhumerus -44.3503 -9.41793 77.172
lradius 62.9803
lwrist 0.691243
lhand -10.3591 1.90616
lfingers 7.12502
lthumb 15.6378 31.2941
rfemur -33.1027 3.46989 14.8301
rtibia 33.2273
rfoot -16.7352 6.09356
rtoes -13.9441
lfemur -17.4165 -7.89934 -11.1078
ltibia 40.3697
lfoot -28.8804 -16.1599
ltoes -0.995536
